/* XPM */
static char *_397e54840b34eedf8bdba664a5f638e9KP1pEhQA8x593rl[] = {
/* columns rows colors chars-per-pixel */
"64 64 215 2 ",
"   c #131313",
".  c #1D1614",
"X  c #1E1815",
"o  c #221715",
"O  c #241916",
"+  c #2B1B17",
"@  c #2B1118",
"#  c #2F1F18",
"$  c #341C17",
"%  c #341419",
"&  c #3A161A",
"*  c #341E18",
"=  c #3C1D19",
"-  c #2D2018",
";  c #342319",
":  c #3C2319",
">  c #3E281C",
",  c #400F1C",
"<  c #41131C",
"1  c #4D131E",
"2  c #451A1C",
"3  c #4B1C1D",
"4  c #52141F",
"5  c #541D1D",
"6  c #5A1E1E",
"7  c #43221A",
"8  c #4B231B",
"9  c #442A1C",
"0  c #4C2C1D",
"q  c #52241B",
"w  c #5B271C",
"e  c #542C1D",
"r  c #5D2A1C",
"t  c #4E301E",
"y  c #54321F",
"u  c #5A321F",
"i  c #63211F",
"p  c #672B1D",
"a  c #6E2D1E",
"s  c #722E1E",
"d  c #63311F",
"f  c #6B321F",
"g  c #79301F",
"h  c #540E21",
"j  c #5A0F22",
"k  c #4E1620",
"l  c #541620",
"z  c #5C1321",
"x  c #571920",
"c  c #5A1A21",
"v  c #650C24",
"b  c #6D0F25",
"n  c #740D26",
"m  c #750B28",
"M  c #7D0E29",
"N  c #621223",
"B  c #6B1424",
"V  c #621C21",
"C  c #6B1B23",
"Z  c #721326",
"A  c #7A1227",
"S  c #751C25",
"D  c #7B1B26",
"F  c #7D1528",
"G  c #7F1929",
"H  c #522420",
"J  c #5B2520",
"K  c #5D2921",
"L  c #543320",
"P  c #5C3520",
"I  c #642423",
"U  c #6D2423",
"Y  c #622922",
"T  c #6A2A22",
"R  c #752623",
"E  c #7C2224",
"W  c #722B23",
"Q  c #7C2128",
"!  c #7F2D28",
"~  c #643421",
"^  c #6D3322",
"/  c #633922",
"(  c #6A3A22",
")  c #743326",
"_  c #7C3524",
"`  c #743B23",
"'  c #7B3C23",
"]  c #754125",
"[  c #7E4427",
"{  c #830B2B",
"}  c #8C0D2C",
"|  c #920C2E",
" . c #9B0B2E",
".. c #841727",
"X. c #831B27",
"o. c #8A1D27",
"O. c #841229",
"+. c #8A132A",
"@. c #851A2A",
"#. c #8A1C2B",
"$. c #94132C",
"%. c #9B132E",
"&. c #941B2D",
"*. c #9D1A2C",
"=. c #9C0930",
"-. c #A30D2F",
";. c #A3142E",
":. c #A9142F",
">. c #A31B2D",
",. c #AC1B2F",
"<. c #B0192F",
"1. c #A50732",
"2. c #AE0634",
"3. c #A30B31",
"4. c #AB0B32",
"5. c #B50636",
"6. c #BC0737",
"7. c #B30B34",
"8. c #BD0A35",
"9. c #BE0538",
"0. c #A41131",
"q. c #AB1331",
"w. c #A31D30",
"e. c #AA1D31",
"r. c #B41332",
"t. c #BB1235",
"y. c #B41932",
"u. c #BD1D32",
"i. c #822926",
"p. c #862926",
"a. c #852429",
"s. c #8C2328",
"d. c #8C2A2A",
"f. c #93232C",
"g. c #9B212D",
"h. c #9F292E",
"j. c #873727",
"k. c #853D24",
"l. c #9C312F",
"z. c #A5252E",
"x. c #A8292E",
"c. c #B4282C",
"v. c #A6382F",
"b. c #A32130",
"n. c #AA2731",
"m. c #B32232",
"M. c #BC2230",
"N. c #B82B33",
"B. c #A73430",
"V. c #B23333",
"C. c #BD3531",
"Z. c #C30C37",
"A. c #CC0D37",
"S. c #C40539",
"D. c #CB063A",
"F. c #C50938",
"G. c #CB0A39",
"H. c #D3063A",
"J. c #DC053D",
"K. c #D30C39",
"L. c #DC0D3A",
"P. c #C41435",
"I. c #CA1235",
"U. c #C41A33",
"Y. c #CC1D36",
"T. c #CD1039",
"R. c #CE1838",
"E. c #D91537",
"W. c #D41A35",
"Q. c #D91C37",
"!. c #D11239",
"~. c #D51438",
"^. c #DD1239",
"/. c #D41D39",
"(. c #E6053D",
"). c #EB043E",
"_. c #E30C3C",
"`. c #E90A3E",
"'. c #F0033F",
"]. c #F50E3E",
"[. c #F90A3F",
"{. c #E61F37",
"}. c #E2133A",
"|. c #EE153B",
" X c #E41C3A",
".X c #EB1B3A",
"XX c #F3123D",
"oX c #F31A3D",
"OX c #C42733",
"+X c #CC2234",
"@X c #CC2835",
"#X c #DA2A37",
"$X c #DC2439",
"%X c #C93435",
"&X c #D73637",
"*X c #E5233D",
"=X c #E8263B",
"-X c #F1233C",
";X c #F42C3E",
":X c #EA353A",
">X c #F3343E",
",X c #884A29",
"<X c #994828",
"1X c #D64439",
"2X c #EC0340",
"3X c #EB0640",
"4X c #F40441",
"5X c #FF0342",
"6X c #FE0343",
"7X c #F50C40",
"8X c #FB0C41",
"9X c #F61140",
"0X c #F81A40",
"qX c #FA1B40",
"wX c #F82241",
/* pixels */
"                          } 8.8.    (.  o   4.  m         } (.8.    7 r.. . o = o = O o +             5X                        ",
"  5X                      H.  8.M . Z . O +.B           O   (.4.o 8 * * O D >.$ O = $ o o _.                                    ",
"          5X(.  @ @     .    .O : = o o * 7 . + .     . $.+ (.  . ].P.= o 8 o $ q $ 8.r.A.o   O                               @ ",
"@ v @       H.| 2.{ v z + . O z O B . I.O $   +.    o H.    P._.5X* O . O *.$ $ o + # r.D +       +                     4.      ",
", h , @   < h { 6.S.5.z 4.  O +.4.r.. 5 . 8.$ 8.O $ . + A.} o : 5XI.  8 o = + O + + 7 r.o * :     o                 5X    H.  @ ",
"v h | m { h | 2.=.2.1.6.v   7 B + 3 3 j O = O $.= r.  o _.h x L.  7 : + 7 + * # O % V 7       9 9 H.      5X  @           @ @   ",
"5Xv =.{ J.| 2.H.D.5.7.| h $.*.O { < 1 5 | #X= u.8 $ $ & : @ , $ O + 7 = $ o o u.O B  .; !.O   + o ;   O   , 5X@ h     @     @ , ",
"h | { H.} , 4.4X2X| H.7.~.8 o.3 & :.1 $ L.B $   $ $   h O @   h & XXp [.+ :   e #.H._.S C 8 ; +     (.    @ @ @ ,   5X5XD.    ).",
"v (.7.1.6.2XD.D.7.7.3._.%.o * S B @ `.XXI.8 O 8 q o N O = @ 8X@ $ _.  O 7 8 : 3 w.F N 0.8.Z + K.t O   o   @ @ h , } h , J.@   , ",
"< H.=.{ =.v 7.{ =.z M t.$.* + 2 + $ _.o 5 O 7 O O   $ N 1 @ @ O O $   7 ; ; O N I $.k m.t.O.; O ; 9 +     8., v 5X'.h , h ,   F.",
"$ @ o J.v 2X} V } N 1 2 =   L.7 8 5 {.U O 7 .Xw   7     O 1 i $ 5X$ +     P   & 1.O.Z 7X{ `.qXK.  O _.5X  h v 5X} 2.v , H.@ ).  ",
"   .8.% 1.D.1.F.3.D.:.% [.^.(.p .Xq ].q p 7 $ O O O     3   O ; ; + :   : : +     e.f.{ $._., @   #     o @ m  .5X1.n h (.).    ",
"+ .   . , H.} 1 b Z.B A.o 7 $ o O [.r 7 O   $ $ O $       + ; : >X+   :     + 8X: #.m.2.N C F P ~ o = q o c | 7.M 7.5XN (.H.(. .",
"5X      | v | t.K.% V * $ $ o $ : O   7 $ O       O   ; ; O : 0     : t : :   : O oX$.+.a.W e.3 $X^.w $ O   7.S.2.1.v 5X      H.",
"8.O . = $ 8.M 3.| O.-.=   E.  O O 7 $   $ $   O   O f +   : + : + :   ( qX0 : + 8XO wX3 R x & 6 o w U.+ O 2 3.8XK.D.1.@       (.",
"8.    %  . .+.A $.3...  c O   7 O O q 0 7 e O u 7 ; 8X: : + ( +   t : + 8X: + 7 0 ; 7 R 3 ,.XXI.c 7 7 o 7 & | +.=.4.3.N         ",
";.8.  h b 4 } b c +.o.].B @ ].7     ; e : ] 0 u [ ;   0 : P : O :  X(.+ 8X8X8X|.  5Xe g.c ].X.X.& i $ XX7 & x @ Z A { M h @     ",
"+ . 8.r.Z (., z 4X..$ a.5XC U 7 = ) J r e e K ~ ; = o   R.3 0 2 o 0 _.D.0 h ~ ; XX.X.XE XXXXo.8XB p A.w $ O C 6 5 M , @ h ,     ",
"I.4 :.H.N _.} F H.9 F a.q.y.U , +.b.S C J 1 K i.U ^ )  XL.O f.Z I.& % F B W C 9X7 $ r 3 +.r.N q V = +X+ w + O `., & 8X).@ v 4X@ ",
". % L.3.1.O.m 8X@ C 1 w.x.8XwXP.j.u @./ ! ; q d.0.V qXC c = @ ! t.qX&.`.@.*.8XC 8X.X$ E E 8X{.5Xh O   o p   q 3 2 N H.m | h v =.",
"4.{ 8.H.2XJ., }.u 3 Q { : h L.*.p.j.7 oXr ( N.S Q Y 9 & k Q   C @.l { V 8.%.b }.:.8X].8X.X%.].X.q $ {.7 7 5X+ 7 o A m Z { 5.m H.",
"Z H.5.5.(.4X;.8 r k.V B.&.V V.&.V.b.D ) ] B.) : /.I F 2 8 1   V @.k r.&.(.S `.b 6 I.XX| P.g.8X:.R & w o = [.].8Xx o } { =.v =.v ",
"{ J.4X2.7.4X`.: u O : V l f.U %XT h.j.*.#Xt.!.l y ; 8 y ; ; z.; & % a.0.+.E.D._.& $.8X].+X7.8Xp.j.7 O O $     1 @ , M D.m S.5.1.",
"J.| 2X4X_.2.9XD 0 0 qX0 0 + S c K y.#X&X' > y K N.9 2 : K   h c + %   $ y.S XX~.1 s.L.-Xt.$.i.h 0 e d 7 ].O K.O < & Z.[.(.H.{ 2.",
"4XH.D.J.3.8X@.h l.V ,X8X8 l U T >X[ x.U.q ; 0 : c - H   % - , o o O I.+ < V D 0.%.L.7X7.A 9Xa.;X8X= = 3 7 7 $ 8X: 1   1 A | m 2X",
"2X5.} | ).8X5X..0.S qXV Q j.8 K v.C @.Y ; R P.z Y ; l X < ,   < $ x h % B   { F.4.q.4XqX8Xa.}.wX@ oX-X: N O 1 @ N 4 1 x ).o.4Xv ",
"D.D.2XH.5.A 5.3 U O.%.0.} #.y.Z h.S V 0 Q +.q.w.5 h B q.h , M h @ 1 4 M z V A.z +.4.P.L.~.D a.U @ q ^ = = 1 3 , 5 % x E u.W.).3.",
"H.S.4X1.{ 8X5X} N l #.h l.d., c a.r.V F V & 1 % B z , & v b Z { b 8.1 % X.Z.K.;.Z.#.%.G./.%.T 0 K W + l O 0.7XC : z P.^.= S z 4.",
"H.2X2.1.(.B  .m h   G = (.*X9Xq Y M _.1 N F =.  M , @ @ , @ z % & A N 7.r. .8.t.H.F $.u.& J J.qXU l V , O B & , 2 5 |.L.B | _.3.",
"3 B 4.(.o   5X@ @ , @ _.@ 3X{ `.J.H.2 x 1 V +.F ..% N < v < A N %.B %.| j K.0.F.4.B y.+.c _ oX!   8   @ : 7 C 3 i 3 C 7 5 ;.b Z.",
"{ 3.3.L.G.        @ @ @ @   )., 5X& r.x 7 $ O 5 o . . h , @ , z { 7.b H.G.A.4.O +.+ #./ 0 ; r.; h wX:   , 5X7 7 XX8 r i , U.L.4X",
"| 7.D.} } @ 5X  5X    H.          r.7 = q O   o o 7 $     & v A 1 } D.2X3.5.. +.; ; - a.+ L 9 t.  O + 5X5X7 $ $ p 7 s o 5 I.`.X.",
"b 2XJ.7.2Xm &   5X    5X          = L.O $ 8 8 <.= 8 *     | F L.| G.(. .4.r.Z l S b.X Y.N ; + O O         O 7 p s r +X  .X|.& Z ",
"V (.G.4X7.1.,   5X5X        (.    +X7 w 7 7 O : = O 2 M =.8.2XN J.7.`.H.}.q.O . : y.+ o q.  o t.O   (.      7 q |.q r : o p + 2 ",
"=.D.J.J.J.9.5X5X        H.  o L.: 7 7 8 = = : q + $ M 1.v | J.3.7.A.G.7 $ F >.B . O - ; :     .             7 r p w q #Xq :   +X",
"z J.H.J.(.S.5X5Xh   O o   O o o o c.= 7 r.: $ + E.h 3.{ 5XD.4X& $.K.r.%.e m ;.+   m = 2 :   ; O             O q r w r 8 7 g 8 ].",
"z } J.9.D.D.5X| @ &   o O o = W.r.: o (.r |.W..X8 K.4.} F.G.J.r.I.x + >.s.+. .&.* T | ; Z m @ ;           O $ p 8 * 8 +X: q 7 .X",
"5 7.3.2X1.2.5X{ 5XA J.$ o   O (.p r.+ _.z.O ].7 | _. .J.r.;.3.+.7 7 0 7 r.Y &.= _.P.J.F | @ l h           7   q 7 p q 8 p r o o ",
"  N q. .1.H.4.m } 8XN 2 : ].o [.= W.+ : $ 8 r.B 4XXXt.(.`.Z.S r 3 $ @X%._ $.+X, q @.q.1 { 3.k v         O O O q     O W.r p $ + ",
"O b { H.(.1.4.8X7X3.Z 3 1   o O _.* L.$ o $ K.X.(.%._.).8.A N 7.E $.B E.T.3 { B 0.H.M F 6.C 3.h         O   O   O o [.    I.  o ",
"&  .8.1 N G.} 7Xh *.a.%., ].z @ O [.{.7 6 6 3 ;.`.4.} _.L.+.%.O.: m.8._.q #.< v v $.5.5.G.5.=.h h         $ r O   + O W.E.w O q ",
"* 1 O { ).c B i S M.+.y.5XX.o & A.o @ 3.{ %.1.| J.8.8.Z.U.,.>.;.|.i.+XI J 8 1 4.W h } 3.{ { h { @       O O $   O o H.+ o   _.: ",
"O .   @ -.:.$ E R |.U }.d.%.h Z H.x (.n  .4XL.N X.+._.a.E Z U.y.z.,.2 W n.B 2   l     +.N h @   @ @         ].$ $ $ (.w (.+   (.",
"r.= 2 5 ;.$.+ 8 R B .Xo.| F M `.Z D _.O.2X].L.5X_.;.%.%.Z K.E T X.g.e ' qX2 $ O     + h h , m     , @     O [.7 = 5X  o : .     ",
"M r.4.+ .   * $ r R {.| ;.-.8.`.7.%.%._.;.| 4.z C Z.I.N -XN.p _ +Xr 9 I.; ; O ;   + O   @ @ @ , ,       5X  O |.  o . $   |.(.  ",
": $   .   ..$ 7 + U s p o.B +.E | L.2X(.4X2X^.+.^.N.7 *.` #.8 7 ( ^.OXo t O   O o o       , @ < @ |         [.O o   $ o 8.  4.  ",
"o w * O O r.E.8 r 8 ^.3 }., D *.C V _.;.4.Z 5 `.f :X0 h.k.' M.7 e i.; ; + ; : ; _.o       @ 3.h m =.  @ h   5X      @ _.@       ",
"$ O O o O O 6 $ + $ x E.7 6 S C U O. .v 8Xr.` :Xu o P ,X` ~ u +XK.d.0 `.O / ; 9 _.  @ ,   , <   @ , | { v , h       , <         ",
"$ O . = O 4 3 O r.i ,.= & 5 5 o I.7.$.G.8.~.q.d.` _ &X( V.~ u 8Xq U.; = L O 4.O @ @ , H.5X, { , v , +.m v 1 @ , ,   @ @ @   h H.",
". 7 O   $ 2 % C 2 X.$ >._.8 u.8.q +.t.I.q.r.D q ( 0 C.( ( #XY.Y N.: 7 ;   O O   @ 5X@   @ h 8Xh < m ).h r.3.& & @ @ D.  @ m h v ",
"7 * O   } @   3 6 6 q = s 8 :.+ O N ;.Z.y.r.n.j.,.[ 1X9 u O =X] }.; *XqX& > O ).H.)., 5X@       h z C | XXB ~.7 + H.@ @ { @ , J.",
"O O . $ 2 @   z   . + + = a = 8 o V t.`./.q.&.T.$X] +Xe 5X; V.V 8Xc +.& u.;       @   @   & H.O , v N h B , c P.O @     J., m m ",
"      +     @ @ @ o o +.o w 7 + % D A y.w.7. X( / 0 o ] +X/ ] @X: , O 8Xo       o   4.$ o H.$ O [.c 3 5 s L.= $ O o o _.8.@ , , ",
"8.I.o     F.  @ }     8.A.  .   * V   c &.B 3 @Xy e Q.z.- %X+ 9  Xu X q. .  o   + A o H.8.*.: . o 8 $ r O ,...M.: O O * 4.    @ ",
"0 e O   o _.        + + 8.o . o (.& F =XR.g.: : V.0 t.$X; ` * * + Z #   M   . 4.o 4.    5X: . * + O O $ s $ I.o M.$ 7 {. ..   F.",
"; 8 ; 7 7 O + O H.   .q.  . o 8., h 1 4.& @ ; 0 #X- P B.#.z.9 *.: + ;    .    .   . : + q.. 7   + 8.+ = $ 8 *.6 = z.$ O + 4.5X  ",
"qX7 7 e t O (.  O 4.o ; o -   H.x , x J C I 8 e 9 o 9 e o z.= X 4.O + ; . O +.8.o H.+ = o ; : Q.: 0 f 9 0 e 0 a a q O o r.r.U.H.",
"_.  ; ; +         : O   ; + B h P.x V F.T + 9 x.9 * z.0 X . + ; H.o 4.  * #  .+ o t.E.H.o 9   9 / f f w ~ $Xk.k.7 ' _.*.8 *.r XX",
"; O O O t >X>     O   t.).D +.`.M x + B 3 : m.7 t 9 ; . : $.;.  ; o $ + O e . : e o o ;     9 &Xm.u : ` p ' w d U.C.# e $ e 7 ^ ",
"    : 0 (.: O +     (.O   z = J.2X)., Z. .o 8 *   + . : + o 7 o + .   * . : + + o o 9 8 = ; ; !.;X~ %.# : ^ r k.0 7 W.r : 8 .Xe ",
"P }.> ; P 9 : ; ;       A., A.8XM O.2 H.$ q.O o 4.= o ;   O . # o . 7 . $ o X * }.e +.  o : ; o y %Xy ; A.` 7 O f.+ e r ^ e ' ~ ",
"t + ; O   : + O     +   @ 5X{ A.& } H.  7 + $ U.  8 o X . O * + * $ o   } e 9 $ e + * # O 9 0 9 e.o e.* 0 7 u 0 7 ~ ~ |.[.;X:X.X",
"5X+ qXP     +   O   o     v J.(.|.).4.* o ; o o ;     * 7 I.*     o +   o . ; O ; * . O ; - * + R.!.y R.[.7 [ %X<Xe   .X: oX;XoX",
"wXt : +   0 : O O   +       _.  _.8.(.;     + (.    $ q 7 : _.o O (.o O o O 7   ;   o ;     O 9 : 9 *Xu.e 0 <XoX+ k.|.oX.Xp XX$ "
};
