/* XPM */
static char *e246558a47eb4f00fcef0db8585299e5zQr6eNKlC6LsoWI1[] = {
/* columns rows colors chars-per-pixel */
"15 15 6 1 ",
"  c #7B6D51",
". c #91001D",
"X c #A1001D",
"o c #CF0029",
"O c #E6002E",
"+ c #FF002F",
/* pixels */
"       +       ",
"       O       ",
"      OOO      ",
"      OOO      ",
"     OOoOO     ",
"     OOoOO     ",
"    OOoooOO    ",
"    OOoooOO    ",
"   OOoooooOO   ",
"   OoooooooO   ",
"  OooooXooooO  ",
"  OoooX.XoooO  ",
" OooXX...XXooO ",
" OXX.     .XXO ",
"OX           XO"
};
