/* XPM */
static char *_910b5f9d70c49f39914958a88e7671fV4yQNYEHCeQrYFYz[] = {
/* columns rows colors chars-per-pixel */
"15 15 9 1 ",
"  c gray4",
". c #131313",
"X c #FABF1B",
"o c #FFC825",
"O c #FAE34D",
"+ c #FFEB57",
"@ c #FFEC70",
"# c #FFF29E",
"$ c gray90",
/* pixels */
"$$$$$$$$$$$$$$$",
"$$$$$     $$$$$",
"$$$$ +#### $$$$",
"$$$ ++++++# $$$",
"$$ ++@+++@+# $$",
"$ o++.+++.++# $",
"$ o++.+++.++# $",
"$ o.+O+++O+.+ $",
"$ oo.+++++.++ $",
"$ Xoo.+++.+++ $",
"$$ Xoo...+++ $$",
"$$$ Xoooooo $$$",
"$$$$ XXXXo $$$$",
"$$$$$     $$$$$",
"$$$$$$$$$$$$$$$"
};
