/* XPM */
static char *_bedd6a741a844c2b21e979a396e0525qPK5rJAkdudOcKA3[] = {
/* columns rows colors chars-per-pixel */
"15 15 13 1 ",
"  c gray4",
". c #131313",
"X c #1B1B1B",
"o c #272727",
"O c gray24",
"+ c #5D5D5D",
"@ c #424C6E",
"# c #657392",
"$ c gray52",
"% c #92A1B9",
"& c #B4B4B4",
"* c #C7CFDD",
"= c white",
/* pixels */
".             .",
" o...........o ",
" .OXXXXXXXXXO. ",
" .X+ooooooo+X. ",
" .Xo$OOOOO$oX. ",
" .XoO&+++&OoX. ",
" .XoO+=%=+OoX. ",
" .XoO+@*#+OoX. ",
" .XoO+=@=+OoX. ",
" .XoO&+++&OoX. ",
" .Xo$OOOOO$oX. ",
" .X+ooooooo+X. ",
" .OXXXXXXXXXO. ",
" o...........o ",
".             ."
};
